<svg width="26" height="24" viewBox="0 0 26 24" fill="none" xmlns="http://www.w3.org/2000/svg">
<path d="M24.7452 11.13C23.6502 9.57 19.5702 4.5 13.0002 4.5C6.43017 4.5 2.35017 9.57 1.25517 11.13C1.07215 11.3832 0.973633 11.6876 0.973633 12C0.973633 12.3124 1.07215 12.6168 1.25517 12.87C2.35017 14.43 6.43017 19.5 13.0002 19.5C19.5702 19.5 23.6502 14.43 24.7452 12.87C24.9282 12.6168 25.0267 12.3124 25.0267 12C25.0267 11.6876 24.9282 11.3832 24.7452 11.13ZM13.0002 16.5C10.5252 16.5 8.50017 14.475 8.50017 12C8.50017 9.525 10.5252 7.5 13.0002 7.5C15.4752 7.5 17.5002 9.525 17.5002 12C17.5002 14.475 15.4752 16.5 13.0002 16.5Z" fill="#464646"/>
<path d="M13 15C14.6569 15 16 13.6569 16 12C16 10.3431 14.6569 9 13 9C11.3431 9 10 10.3431 10 12C10 13.6569 11.3431 15 13 15Z" fill="#464646"/>
</svg>
